<svg xmlns="http://www.w3.org/2000/svg" width="1040" height="1040" fill="none" viewBox="0 0 1040 1040">
  <path fill="#000" d="M0 0h1040v1040H0z"/>
  <path fill="#fff" d="M372.97 194.806h168.821v76.241H372.97v61.72H519.1v318.581H372.97v62.627h168.821v61.098c11.922-28.571 21-57.71 27.23-87.42 8.471-38.12 13.916-75.939 16.336-113.455 2.421-37.515 3.631-73.216 3.631-107.101v-326.75H923v698.882c0 22.994-3.026 41.146-9.077 54.459-5.446 13.311-15.127 23.598-29.044 30.859-14.522 7.261-32.978 11.8-55.366 13.615-21.784 1.815-49.618 2.421-83.503 1.816-1.21-7.262-3.328-16.036-6.354-26.323-2.42-10.286-5.445-20.875-9.076-31.766-3.025-10.287-6.656-19.061-10.892-26.323 21.784 1.211 42.357 1.816 61.72 1.816 19.968 0 32.978-.302 39.029-.907 6.655 0 11.193-1.211 13.614-3.631 3.025-3.026 4.538-7.867 4.538-14.523V648.625H658.454a969.05 969.05 0 0 1-11.377 64.442c-9.076 42.357-22.993 83.503-41.751 123.439-18.153 39.331-42.357 74.729-72.611 106.194-4.841-5.446-11.497-11.194-19.968-17.245a992.115 992.115 0 0 0-26.322-18.153c-8.471-5.446-16.035-9.681-22.691-12.706 29.045-29.65 51.735-62.023 68.073-97.118a527.079 527.079 0 0 0 3.376-7.261H372.97v148.852h-83.503V790.217H117.924v-76.242h171.543v-62.627H152.414V332.767h137.053v-61.72H127v-76.241h162.467V97.687h83.503v97.119ZM228.655 586.905h211.481v-65.349H228.655v65.349ZM670.676 435.33v31.767c0 32.122-1.422 66.613-4.264 103.471h172.177V435.33H670.676Zm-442.021 25.413h211.481v-63.534H228.655v63.534Zm442.021-242.339v139.777h167.913V218.404H670.676Z"/>
</svg>
